ply
format ascii 1.0
comment : meetspace
comment : MagicaVoxel @ Ephtracy
element vertex 24
property float x
property float y
property float z
property uchar red
property uchar green
property uchar blue
element face 6
property list uchar int vertex_index
end_header
-18 12 19 0 102 204
-18 12 20 0 102 204
-18 13 20 0 102 204
-18 13 19 0 102 204
-17 12 19 0 102 204
-17 13 19 0 102 204
-17 13 20 0 102 204
-17 12 20 0 102 204
-18 12 19 0 102 204
-17 12 19 0 102 204
-17 12 20 0 102 204
-18 12 20 0 102 204
-18 13 19 0 102 204
-18 13 20 0 102 204
-17 13 20 0 102 204
-17 13 19 0 102 204
-18 12 19 0 102 204
-18 13 19 0 102 204
-17 13 19 0 102 204
-17 12 19 0 102 204
-18 12 20 0 102 204
-17 12 20 0 102 204
-17 13 20 0 102 204
-18 13 20 0 102 204
4 0 1 2 3
4 4 5 6 7
4 8 9 10 11
4 12 13 14 15
4 16 17 18 19
4 20 21 22 23
